PathFileType	4	(X/Y/Z)	C:\Git\research_data\torsion_deformities_healthy_kinematics\simulations\P03\pre\Static01\markers_HJC.trc
DataRate	CameraRate	NumFrames	NumMarkers	Units	OrigDataRate	OrigDataStartFrame	OrigNumFrames
150	150	6	38	mm	150	1	150
Frame#	Time	C7			T10			CLAV			STRN			RBAK			SACR			LASI			RASI			LT1			LT2			LT3			LS1			LS2			LS3			LHEE			LTOE			RT1			RT2			RT3			RS1			RS2			RS3			RHEE			RTOE			LKNE			LKNM			LANK			LANM			RKNM			RKNE			RANM			RANK			LKJC			RKJC			LAJC			RAJC			LHJC			RHJC		
		X1	Y1	Z1	X2	Y2	Z2	X3	Y3	Z3	X4	Y4	Z4	X5	Y5	Z5	X6	Y6	Z6	X7	Y7	Z7	X8	Y8	Z8	X9	Y9	Z9	X10	Y10	Z10	X11	Y11	Z11	X12	Y12	Z12	X13	Y13	Z13	X14	Y14	Z14	X15	Y15	Z15	X16	Y16	Z16	X17	Y17	Z17	X18	Y18	Z18	X19	Y19	Z19	X20	Y20	Z20	X21	Y21	Z21	X22	Y22	Z22	X23	Y23	Z23	X24	Y24	Z24	X25	Y25	Z25	X26	Y26	Z26	X27	Y27	Z27	X28	Y28	Z28	X29	Y29	Z29	X30	Y30	Z30	X31	Y31	Z31	X32	Y32	Z32	X33	Y33	Z33	X34	Y34	Z34	X35	Y35	Z35	X36	Y36	Z36	X37	Y37	Z37	X38	Y38	Z38	

1	0.000000	441.158905	1273.889648	-964.104004	443.063263	1094.520142	-915.230713	425.060181	1212.959961	-1095.646240	420.282013	1160.167480	-1128.394165	540.288147	1176.933594	-934.113586	428.316589	874.542664	-918.474792	276.016205	870.943115	-1073.995728	518.584351	879.007263	-1127.219849	242.284973	585.767578	-1129.932251	230.449051	474.094452	-1080.853027	275.828705	531.286133	-1204.695557	282.390076	216.883179	-1034.055664	341.971802	148.558167	-951.073181	254.402756	131.284271	-1063.027222	367.927948	41.867340	-973.886963	262.561523	41.469032	-1083.526245	590.239014	608.278809	-1135.057861	584.497803	510.678894	-1057.717285	580.648804	534.757507	-1199.778320	586.102905	267.084259	-1089.997314	561.341919	217.631622	-981.988892	581.757690	176.834427	-1117.220825	500.066895	45.054333	-982.019958	570.502258	41.881138	-1123.464233	267.456512	432.381866	-1149.450928	367.142395	421.463654	-1165.127197	304.893066	49.727455	-994.478271	357.081421	46.968243	-1045.193115	464.455200	424.132324	-1165.928833	566.865662	440.123383	-1166.016724	490.658691	52.792347	-1063.049561	552.185608	47.718151	-1019.232483	317.299469	426.922760	-1157.289062	515.660400	432.127869	-1165.972778	330.987244	48.347851	-1019.835693	521.422119	50.255249	-1041.140991	324.446416	786.637584	-1029.161019	498.794624	792.433769	-1067.416372	
2	0.006667	441.193054	1273.898682	-963.976257	443.130188	1094.505371	-915.183899	425.113831	1212.940796	-1095.560791	420.354065	1160.157715	-1128.302490	540.386536	1176.922607	-934.077942	428.391022	874.504639	-918.425293	276.094543	870.984863	-1073.977661	518.691223	879.039368	-1127.145752	242.308273	585.810913	-1129.878296	230.478806	474.114594	-1080.741333	275.815552	531.317200	-1204.653442	282.399109	216.899094	-1033.987793	341.990967	148.550735	-951.020996	254.385651	131.320709	-1062.958496	367.921326	41.848118	-973.885498	262.515259	41.460537	-1083.501953	590.319946	608.280273	-1134.980957	584.521057	510.682129	-1057.623657	580.740784	534.770996	-1199.702881	586.140930	267.088531	-1089.963867	561.330872	217.610260	-981.955444	581.797485	176.832748	-1117.189697	500.073212	45.045765	-982.029236	570.499390	41.886032	-1123.460327	267.399689	432.431427	-1149.400024	367.121490	421.481201	-1165.073975	304.876648	49.696297	-994.443726	357.045898	46.987598	-1045.181519	464.522217	424.147522	-1165.900513	566.928955	440.135803	-1165.960815	490.660461	52.794697	-1063.059326	552.199829	47.712532	-1019.249817	317.260590	426.956329	-1157.237061	515.725586	432.141663	-1165.930664	330.961273	48.341949	-1019.812561	521.430115	50.253616	-1041.154663	324.506314	786.650886	-1029.165443	498.874139	792.440110	-1067.380329	
3	0.013333	441.231750	1273.914307	-963.859192	443.196564	1094.497681	-915.133118	425.170776	1212.928223	-1095.478149	420.429291	1160.149414	-1128.212646	540.468872	1176.929443	-934.022888	428.460327	874.479980	-918.385681	276.173218	871.026428	-1073.955688	518.793091	879.072205	-1127.075439	242.321411	585.852478	-1129.818237	230.493423	474.140991	-1080.630859	275.790802	531.344849	-1204.602539	282.397064	216.917542	-1033.920166	342.005188	148.547455	-950.971985	254.364212	131.353226	-1062.891235	367.913574	41.834507	-973.882935	262.471619	41.451691	-1083.478394	590.401184	608.285156	-1134.893555	584.543396	510.685364	-1057.529175	580.843567	534.783020	-1199.619019	586.183167	267.091919	-1089.927490	561.332214	217.591278	-981.926270	581.836731	176.832367	-1117.155762	500.078064	45.038567	-982.036194	570.499695	41.889240	-1123.456909	267.368805	432.463348	-1149.304443	367.095337	421.495331	-1165.022705	304.856567	49.675083	-994.415588	357.011658	47.007839	-1045.169312	464.597961	424.166779	-1165.872192	567.004272	440.149597	-1165.899780	490.664368	52.798313	-1063.064575	552.210876	47.706829	-1019.260620	317.232086	426.979340	-1157.163574	515.801147	432.158203	-1165.885986	330.934113	48.341461	-1019.792419	521.437622	50.252571	-1041.162598	324.568512	786.669125	-1029.163951	498.952319	792.452052	-1067.343941	
4	0.020000	441.274994	1273.935181	-963.753601	443.262482	1094.496582	-915.078613	425.230072	1212.923584	-1095.396973	420.507507	1160.145142	-1128.126221	540.536804	1176.950684	-933.949768	428.524658	874.469360	-918.354492	276.251801	871.067261	-1073.929932	518.889954	879.105408	-1127.008667	242.323975	585.891724	-1129.751587	230.495377	474.171051	-1080.521118	275.753662	531.369507	-1204.543579	282.385162	216.938141	-1033.853271	342.014709	148.548080	-950.926392	254.338242	131.382797	-1062.825562	367.904663	41.826065	-973.878784	262.430084	41.442688	-1083.455078	590.483459	608.292847	-1134.796143	584.564636	510.689423	-1057.433838	580.955322	534.794373	-1199.527100	586.229858	267.094238	-1089.887939	561.344849	217.574539	-981.900513	581.875732	176.832825	-1117.119019	500.081451	45.032715	-982.040955	570.503113	41.890793	-1123.453857	267.373901	432.476624	-1149.155396	367.061157	421.506134	-1164.975342	304.833466	49.662979	-994.393311	356.978790	47.028759	-1045.156372	464.682159	424.188995	-1165.846558	567.091980	440.164429	-1165.834473	490.670288	52.803024	-1063.065430	552.218567	47.701027	-1019.265015	317.217529	426.991364	-1157.065430	515.887085	432.176697	-1165.840454	330.906128	48.345867	-1019.774780	521.444458	50.252026	-1041.165283	324.632790	786.691999	-1029.155754	499.029228	792.469426	-1067.306153	
5	0.026667	441.322754	1273.959106	-963.659424	443.328217	1094.500977	-915.021423	425.290588	1212.928711	-1095.316528	420.588104	1160.148682	-1128.045044	540.594482	1176.979858	-933.863708	428.584564	874.473694	-918.329163	276.329681	871.106567	-1073.900757	518.981567	879.138184	-1126.944824	242.315842	585.927856	-1129.676514	230.487167	474.203613	-1080.414307	275.702789	531.391541	-1204.478394	282.365723	216.960144	-1033.788208	342.020020	148.551956	-950.884094	254.307968	131.410706	-1062.761597	367.894348	41.822163	-973.872437	262.389984	41.433640	-1083.431519	590.567749	608.302307	-1134.690186	584.584900	510.695190	-1057.337036	581.073853	534.804626	-1199.426880	586.281006	267.095123	-1089.845215	561.366028	217.559540	-981.875610	581.915161	176.833359	-1117.079224	500.083496	45.028130	-982.043640	570.509521	41.890728	-1123.450684	267.420593	432.470490	-1148.952759	367.013336	421.513092	-1164.934937	304.808624	49.657932	-994.375732	356.947388	47.049961	-1045.142456	464.773560	424.212219	-1165.824585	567.191528	440.179596	-1165.766113	490.677917	52.808876	-1063.062866	552.223145	47.695248	-1019.263306	317.216949	426.991791	-1156.943848	515.982544	432.195892	-1165.795288	330.878021	48.353947	-1019.759033	521.450500	50.252060	-1041.163086	324.698652	786.719155	-1029.139655	499.104628	792.491877	-1067.265064	
6	0.033333	441.374542	1273.983521	-963.574463	443.394348	1094.509277	-914.963379	425.351776	1212.944458	-1095.238037	420.670929	1160.164551	-1127.968140	540.647888	1177.010010	-933.774475	428.640808	874.493835	-918.306152	276.405579	871.143372	-1073.868896	519.067993	879.169189	-1126.882935	242.297989	585.960327	-1129.591797	230.472000	474.238434	-1080.311523	275.637604	531.411377	-1204.408325	282.341949	216.982376	-1033.726196	342.021881	148.557846	-950.844360	254.274918	131.437256	-1062.699463	367.882751	41.821774	-973.864197	262.350983	41.424503	-1083.407349	590.655151	608.312744	-1134.577759	584.605652	510.702881	-1057.238159	581.198486	534.812439	-1199.319458	586.336731	267.094147	-1089.799316	561.391785	217.545532	-981.847717	581.955994	176.833130	-1117.036865	500.084320	45.024666	-982.044617	570.518799	41.889160	-1123.447021	267.483276	432.453613	-1148.733398	366.949005	421.515198	-1164.902466	304.783417	49.656696	-994.361389	356.917542	47.070976	-1045.128052	464.870483	424.235077	-1165.802979	567.301453	440.193939	-1165.695923	490.686859	52.816196	-1063.058350	552.224976	47.689777	-1019.255920	317.216125	426.984406	-1156.817871	516.085999	432.214508	-1165.749390	330.850494	48.363834	-1019.744751	521.455933	50.252987	-1041.157104	324.764852	786.749845	-1029.114284	499.178184	792.518392	-1067.218063	
